<svg width="60" height="60" viewBox="0 0 60 60" fill="none" xmlns="http://www.w3.org/2000/svg">
<g clip-path="url(#clip0_1_49)">
<rect width="60" height="60" fill="#3D5972"/>
<rect y="60.4264" width="98.4459" height="60" transform="rotate(-45 0 60.4264)" fill="#276DCB"/>
<path d="M23.876 20.4H28.412V40H23.876V20.4ZM14.972 40H10.436V20.4H14.972V40ZM24.212 31.964H14.636V28.128H24.212V31.964ZM33.3227 40V20.4H41.8067C43.5614 20.4 45.0734 20.6893 46.3427 21.268C47.6121 21.828 48.5921 22.64 49.2827 23.704C49.9734 24.768 50.3187 26.0373 50.3187 27.512C50.3187 28.968 49.9734 30.228 49.2827 31.292C48.5921 32.356 47.6121 33.1773 46.3427 33.756C45.0734 34.316 43.5614 34.596 41.8067 34.596H35.8427L37.8587 32.552V40H33.3227ZM37.8587 33.056L35.8427 30.9H41.5547C42.9547 30.9 44.0001 30.6013 44.6907 30.004C45.3814 29.4067 45.7267 28.576 45.7267 27.512C45.7267 26.4293 45.3814 25.5893 44.6907 24.992C44.0001 24.3947 42.9547 24.096 41.5547 24.096H35.8427L37.8587 21.94V33.056Z" fill="white"/>
</g>
<defs>
<clipPath id="clip0_1_49">
<rect width="60" height="60" fill="white"/>
</clipPath>
</defs>
</svg>
